<?xml version="1.0" encoding="utf-8"?>
<!-- Generator: Adobe Illustrator 23.0.1, SVG Export Plug-In . SVG Version: 6.00 Build 0)  -->
<svg version="1.1" id="Layer_1" xmlns="http://www.w3.org/2000/svg" xmlns:xlink="http://www.w3.org/1999/xlink" x="0px" y="0px"
	 viewBox="0 0 100 80" style="enable-background:new 0 0 100 80;" xml:space="preserve">
<style type="text/css">
	.st0{fill:#E4508F;}
</style>
<g>
	<path class="st0" d="M53.4,70.2c0,0-3.7,7.3-17,8.6v-1.4c12.4-2.9,13.2-18.7,1.7-26.7L20.5,39.1C10.3,32.4,0.5,22.7,8.7,10
		c0,0,4.3-6.6,16-8v1.4c-9.3,3-14.1,15.9-0.1,25.1l17.7,11.6C56.7,49.6,59.1,61.3,53.4,70.2z M28.1,77.4v1.4
		c-14.6-0.9-21.3-5.9-21.3-5.9V52.4h1.4C9.3,64.2,13.6,75.6,28.1,77.4z M33.1,3.4V1.9c13.1,0.9,20.2,4.9,20.2,4.9v18h-1.4
		C51,15.1,47.3,4.9,33.1,3.4z"/>
</g>
<g>
	<path class="st0" d="M37.1,2.3h20.3v76.8H37.1v-1c4.8,0,6.5-5.7,6.5-13.1V16.2c0-6.8-1.6-13.1-6.5-13.1V2.3z M65.2,79.1v-1.6
		c8.9-0.2,16.7-1.7,16.7-18.4c0-15.8-9.1-17.8-16.7-18v-1.7c6-0.7,12.2-4.1,12.2-18.6C77.4,7.2,70.8,4.6,65.2,4V2.3
		c13.9,0.2,25.9,1.5,25.9,18.6c0,16.7-17.1,18.9-19.3,18.9c7.2,0,24.5,1.3,24.5,19.9C96.3,77.5,82.8,79,65.2,79.1z"/>
</g>
</svg>
