<?xml version="1.0" encoding="iso-8859-1"?>
<!-- Generator: Adobe Illustrator 18.0.0, SVG Export Plug-In . SVG Version: 6.00 Build 0)  -->
<!DOCTYPE svg PUBLIC "-//W3C//DTD SVG 1.1//EN" "http://www.w3.org/Graphics/SVG/1.1/DTD/svg11.dtd">
<svg version="1.1" id="Capa_1" xmlns="http://www.w3.org/2000/svg" xmlns:xlink="http://www.w3.org/1999/xlink" x="0px" y="0px"
	 viewBox="0 0 58.503 58.503" style="enable-background:new 0 0 58.503 58.503;" xml:space="preserve">
<g>
	<path d="M54.346,3.085L51.261,0L34.225,17.036l-1.414,1.414L3.104,48.157c-2.189,2.189-2.474,5.625-0.661,7.991
		c1.18,1.539,2.962,2.354,4.77,2.354c1.168,0,2.346-0.341,3.377-1.048c0.504-0.345,0.938-0.584,1.362-0.753
		c2.196-0.867,2.08-2.595,1.816-3.547c-0.135-0.485-0.112-0.893,0.058-1.063c0.17-0.169,0.574-0.191,1.062-0.057
		c1.217,0.338,2.312,0.127,3.01-0.571c0.699-0.699,0.907-1.796,0.571-3.01c-0.135-0.485-0.113-0.892,0.057-1.062
		c0.169-0.171,0.578-0.19,1.062-0.057c1.214,0.337,2.312,0.13,3.01-0.571c0.699-0.699,0.907-1.796,0.571-3.01
		c-0.135-0.485-0.113-0.892,0.057-1.062s0.578-0.191,1.062-0.057c1.214,0.337,2.312,0.129,3.01-0.571
		c0.699-0.698,0.907-1.796,0.571-3.011c-0.135-0.484-0.113-0.891,0.057-1.061c0.171-0.171,0.579-0.192,1.062-0.058
		c1.216,0.337,2.313,0.129,3.011-0.57c0.699-0.699,0.907-1.797,0.57-3.011c-0.135-0.484-0.112-0.892,0.058-1.062
		c0.169-0.17,0.577-0.191,1.061-0.057c1.217,0.338,2.312,0.129,3.011-0.57s0.907-1.797,0.57-3.01
		c-0.135-0.485-0.112-0.893,0.058-1.063s0.576-0.191,1.063-0.057c0.97,0.269,1.846,0.199,2.531-0.203
		c0.569-0.333,0.958-0.863,1.122-1.532c0.238-0.968-0.094-2.049-0.867-2.822l-1.914-1.913c0.697-0.489,1.841-1.195,3.505-1.901
		c3.277-1.391,6.11-3.279,8.421-5.613c1.115-1.127,2.018-2.264,2.682-3.379l0.063-0.125c0.038-0.08,0.417-0.783,1.894-0.488
		l0.675,0.135l0.367-0.582C57.041,9.83,58.487,7.227,54.346,3.085z M40.097,26.325c-0.045,0.18-0.125,0.247-0.19,0.285
		c-0.201,0.117-0.571,0.116-0.987,0.001c-1.215-0.336-2.312-0.128-3.011,0.57s-0.907,1.796-0.571,3.011
		c0.135,0.484,0.113,0.892-0.057,1.062c-0.169,0.17-0.575,0.192-1.062,0.057c-1.212-0.335-2.311-0.129-3.01,0.57
		s-0.907,1.796-0.571,3.011c0.135,0.484,0.113,0.892-0.057,1.062c-0.171,0.17-0.575,0.191-1.062,0.057
		c-1.216-0.338-2.313-0.127-3.011,0.571c-0.699,0.699-0.907,1.797-0.57,3.009c0.135,0.485,0.112,0.893-0.058,1.063
		c-0.169,0.172-0.576,0.192-1.061,0.058c-1.214-0.336-2.312-0.13-3.011,0.57c-0.699,0.699-0.907,1.797-0.57,3.011
		c0.135,0.484,0.112,0.891-0.058,1.061c-0.168,0.172-0.576,0.192-1.061,0.058c-1.213-0.335-2.312-0.13-3.011,0.57
		c-0.699,0.699-0.907,1.797-0.57,3.011c0.135,0.484,0.112,0.891-0.058,1.061c-0.169,0.17-0.575,0.192-1.062,0.058
		c-1.212-0.336-2.31-0.129-3.01,0.569c-0.699,0.699-0.907,1.797-0.571,3.012c0.185,0.664,0.068,0.88-0.624,1.153
		c-0.568,0.225-1.126,0.53-1.757,0.962c-1.747,1.199-4.134,0.817-5.429-0.873c-1.205-1.572-0.996-3.877,0.487-5.36l29.707-29.707
		l5.532,5.531C40.035,25.673,40.167,26.038,40.097,26.325z M55.161,8.491c-1.779,0-2.734,1.021-3.048,1.717
		c-0.578,0.959-1.368,1.947-2.351,2.939c-2.126,2.147-4.744,3.89-7.78,5.178c-2.025,0.859-3.39,1.739-4.16,2.307l-1.535-1.534
		l-0.648-0.648L51.261,2.828l1.671,1.671c1.941,1.941,2.298,3.293,2.314,3.993C55.217,8.491,55.189,8.491,55.161,8.491z"/>
	<circle cx="40.1" cy="16.687" r="1.246"/>
	<circle cx="50.673" cy="7.289" r="1.246"/>
</g>
<g>
</g>
<g>
</g>
<g>
</g>
<g>
</g>
<g>
</g>
<g>
</g>
<g>
</g>
<g>
</g>
<g>
</g>
<g>
</g>
<g>
</g>
<g>
</g>
<g>
</g>
<g>
</g>
<g>
</g>
</svg>
