<?xml version="1.0" encoding="utf-8"?>
<!-- Generator: Adobe Illustrator 23.0.1, SVG Export Plug-In . SVG Version: 6.00 Build 0)  -->
<svg version="1.1" id="Layer_1" xmlns="http://www.w3.org/2000/svg" xmlns:xlink="http://www.w3.org/1999/xlink" x="0px" y="0px"
	 viewBox="0 0 512 280" style="enable-background:new 0 0 512 280;" xml:space="preserve">
<style type="text/css">
	.st0{fill:#E4508F;}
</style>
<g>
	<g>
		<path class="st0" d="M485.2,133.5c-15.3-15.3-35.7-23.7-57.3-23.7h-43.3c-3.5,0-6.6,2.1-8,5.3c-0.5,1.3-0.7,2.6-0.6,3.9h-25.7
			l-6.7-6.7c-1.6-1.6-3.8-2.5-6.1-2.5h-83.4c-3.5,0-6.6,2.1-8,5.3c-0.5,1.3-0.7,2.6-0.6,3.9h-25.7l-6.7-6.7
			c-1.6-1.6-3.8-2.5-6.1-2.5h-83.4c-3.5,0-6.6,2.1-8,5.3c-0.5,1.3-0.7,2.6-0.6,3.9H89l-6.1-6.1c-1.9-1.9-4.6-2.8-7.2-2.4
			c-40.1,5.3-70.3,39.9-70.3,80.3c0,21.6,8.4,42,23.7,57.3c15.3,15.3,35.7,23.7,57.3,23.7h341.3c44.7,0,81.1-36.4,81.1-81.1
			C508.9,169.2,500.5,148.8,485.2,133.5z M390.2,136.2l8.6,8.6c3.1,3.1,3.1,8.3,0,11.4c-3.1,3.1-8.2,3.1-11.4,0l-20-20H390.2z
			 M259.6,136.2l8.6,8.6c3.1,3.1,3.1,8.3,0,11.4c-3.1,3.1-8.3,3.1-11.4,0l-20-20H259.6z M129,136.2L129,136.2l8.6,8.6
			c1.5,1.5,2.4,3.5,2.4,5.7c0,2.1-0.8,4.2-2.4,5.7c-1.5,1.5-3.5,2.4-5.7,2.4c-2.1,0-4.2-0.8-5.7-2.4l-20-20H129z M427.8,254.6H86.5
			c-17,0-33.1-6.6-45.1-18.7c-12.1-12.1-18.7-28.1-18.7-45.1c0-30.5,21.7-56.7,51.2-62.6l40.2,40.2c4.8,4.8,11.1,7.4,17.9,7.4
			c6.8,0,13.1-2.6,17.9-7.4c4.8-4.8,7.4-11.1,7.4-17.9c0-6.8-2.6-13.1-7.4-17.9l-5.6-5.6h59.1l41.4,41.4c9.9,9.9,25.9,9.9,35.8,0
			c9.9-9.9,9.9-25.9,0-35.8l-5.6-5.6h59.1l41.4,41.4c9.9,9.9,25.9,9.8,35.8,0c9.9-9.9,9.9-25.9,0-35.8l-5.6-5.6h22.5
			c17.1,0,33.1,6.6,45.1,18.7c12.1,12.1,18.7,28.1,18.7,45.1C491.7,226,463,254.6,427.8,254.6z"/>
	</g>
</g>
<g>
	<path class="st0" d="M6.8,75.7c-0.1-4.2,0.6-9.6,1.8-14.1c0.6-0.8,3.1-0.8,3.8,0.2c0.2,2.7,0.8,6.7,2.8,10.2
		c2.9,5.2,7.4,7.7,12.7,7.7c6,0,11.6-4.1,11.6-11.8c0-4.9-2.6-8.9-8.2-12.9l-2.4-1.8c-5.9-4.3-10.6-9.7-10.6-16.3
		c0-12.5,10.3-20.3,23.9-20.2c7.1,0.1,13.6,2.1,17.8,5.3c-1.3,2.7-2.9,7.2-4.3,12.9c-0.8,1.2-3.2,0.9-3.8,0
		c1.2-7.1-2.1-13.7-10.3-13.7c-7.4,0-11.7,5.6-11.7,10.5c0,3,1.5,6.8,8.3,11.4l3,2c5.6,3.8,11.1,9.4,11.1,18.1
		c0,12-9.2,20.8-25.9,20.8C16.3,84.2,9,79.7,6.8,75.7z"/>
	<path class="st0" d="M107.5,56.5c0,7-3.4,15.2-9.1,20.6C93.4,82,87.6,84,81.9,84c-9.9,0-14.2-6.7-14.1-13.5
		c0.1-7.5,3.7-16.4,10.2-22c5.6-4.9,10.8-6.1,15.2-6.1C103.6,42.3,107.5,49.5,107.5,56.5z M88.7,50.3C85.1,54.7,79,66.4,79,75.7
		c0,2.4,1.2,4,3,4c2.4,0,4.6-2.2,7.2-6.5c2.6-4.4,7.4-15.1,7.4-22.5c0-2-0.6-4.1-2.7-4.1C92.4,46.6,90.7,47.8,88.7,50.3z"/>
	<path class="st0" d="M147.8,46.4c0,0.8-0.2,2-0.5,2.7l-9.6,23.7c-0.7,1.8-0.4,2.6,0.8,2.6c0.6,0,1.8-0.4,3.7-2
		c8.1-6.9,15.1-21.1,19.5-30.3c1.1-0.5,2.1-0.8,3.6-0.8c3.2,0,5.5,1.1,6.8,2.1c-3.7,9.5-7.7,19.2-11.1,28.7
		c-0.4,1.2-0.8,2.7,0.5,2.7c1.6,0,6.4-3.8,8.9-6.3c1.2,0.2,1.8,0.9,1.8,2.2c-2.7,4.8-12.3,12.2-20.4,12.2c-2.4,0-4.5-2-3.3-5
		l5.5-13.8h-0.2c-5.2,7.3-15.9,18.8-23.7,18.8c-3.3,0-5.4-2.3-5.4-5.1c0-1.8,0.7-3.7,1.5-5.7l8.1-20.3c0.5-1.3,0.4-2.5-0.4-2.5
		c-1.9,0-5.9,3.8-8.7,5.9c-1.1-0.4-1.8-1-1.7-2.3c3.7-5,12.7-11.6,20.1-11.6C145.8,42.3,147.8,44.6,147.8,46.4z"/>
	<path class="st0" d="M224.4,48.2c0,5.5-3.8,9.5-6.4,9.5c-1.9,0-2.3-1.9-2.8-4.5c-0.3-1.7-0.8-2.2-1.6-2.2c-1.7,0-4.2,4-6.7,8.5
		c-4.4,7.9-7.1,15.2-10.2,22.8c-0.6,1.4-2.5,1.8-4.7,1.8c-2.4,0-6.3-0.8-5.4-3.9c2.8-9,6.4-19.2,9.2-27.6c0.6-1.8,0.7-3.1-0.4-3.1
		c-1.7,0-5.4,2.8-8.1,5.9c-1.2-0.1-1.9-1.2-1.8-2.2c1.9-3.9,8.2-10.8,15.3-10.8c5.6,0,5.8,4.4,4.2,9.3L201.5,62h0.5
		c3.2-5.7,5.7-9.9,8.1-12.9c3-4.1,6-6.7,9.5-6.7C222.4,42.3,224.4,44.2,224.4,48.2z"/>
	<path class="st0" d="M266.9,44.8l6.3-19c1.2-3.5,1.1-4.6-0.7-5.5l-2.7-1.6c-0.3-0.8-0.3-1.7,0.5-2.3c3-1.3,13-3.1,17.6-3.3
		c0.7,0.1,1,0.4,1,1c-1.6,4.1-2.7,7.5-4.5,12.7L270.3,69c-1.1,3.1-1.6,5.4-1.7,6.2c0,0.6,0.3,1.2,0.9,1.2c1.1,0,5.8-2.9,8.9-6.1
		c1.2,0.1,1.8,0.8,1.6,2.2c-2.1,3.2-10.1,11.5-19.8,11.5c-2.7,0-3.7-2-3.7-4.1c0-1.6,1-4.2,1.9-7l2.2-6.4h-0.2
		c-4.6,6.9-12.2,17.5-22.9,17.5c-4.3,0-7.2-3.8-7-9.2c0.2-7.9,4.8-17.7,12.4-24.3c6.4-5.6,13-8.1,18.7-8.1
		C264.1,42.3,265.9,43.4,266.9,44.8z M241.7,76.3c0,1.5,0.5,2.1,1.5,2.1c1.7,0,8.5-5.2,12.9-10.9c3.3-4.3,6-8.4,8-14.3
		c1.3-3.7,0.5-6.6-1.2-6.6c-0.6,0-1.5,0.1-3.6,1.7c-1.8,1.4-5.4,4.6-9.3,10.3C245.2,65.4,241.7,73.8,241.7,76.3z"/>
	<path class="st0" d="M333,56.5c0,7-3.4,15.2-9.1,20.6C318.9,82,313,84,307.4,84c-9.9,0-14.2-6.7-14.1-13.5
		c0.1-7.5,3.7-16.4,10.2-22c5.6-4.9,10.8-6.1,15.2-6.1C329.1,42.3,333,49.5,333,56.5z M314.1,50.3c-3.5,4.4-9.6,16.1-9.6,25.4
		c0,2.4,1.2,4,3,4c2.4,0,4.6-2.2,7.2-6.5c2.6-4.4,7.4-15.1,7.4-22.5c0-2-0.6-4.1-2.7-4.1C317.8,46.6,316.2,47.8,314.1,50.3z"/>
	<path class="st0" d="M373.3,46.4c0,0.8-0.2,2-0.5,2.7l-9.6,23.7c-0.7,1.8-0.4,2.6,0.8,2.6c0.6,0,1.8-0.4,3.7-2
		c8.1-6.9,15.1-21.1,19.5-30.3c1.1-0.5,2.1-0.8,3.6-0.8c3.2,0,5.5,1.1,6.8,2.1c-3.7,9.5-7.7,19.2-11.1,28.7
		c-0.4,1.2-0.8,2.7,0.5,2.7c1.6,0,6.4-3.8,8.9-6.3c1.2,0.2,1.8,0.9,1.8,2.2c-2.7,4.8-12.3,12.2-20.4,12.2c-2.4,0-4.5-2-3.3-5
		l5.5-13.8H379c-5.2,7.3-15.9,18.8-23.7,18.8c-3.3,0-5.4-2.3-5.4-5.1c0-1.8,0.7-3.7,1.5-5.7l8.1-20.3c0.5-1.3,0.4-2.5-0.4-2.5
		c-1.9,0-5.9,3.8-8.7,5.9c-1.1-0.4-1.8-1-1.7-2.3c3.7-5,12.7-11.6,20.1-11.6C371.2,42.3,373.3,44.6,373.3,46.4z"/>
	<path class="st0" d="M401.6,99.1c0-7.6,10.9-11.1,16.2-12.8c-1.9-1.4-3.8-2.7-3.8-5.3c0-2.4,4-6.1,6.1-7.7v-0.2
		c-4.3-1-8.6-4.2-8.5-11.2c0-6.7,6.4-19.7,22.4-19.7c1.6,0,2.9,0.3,4.8,1c1.6,0.5,2.8,1.6,3.7,1.6c1.4,0,2.8-0.4,4-0.8
		c1.6-0.6,3.3-1.2,4.8-1.2c1.8,0,3.3,1.2,3.3,4c0,3.3-2.1,4-3.2,4c-0.9,0-1.7-0.2-2.7-0.6c-0.9-0.3-1.8-0.6-2.4-0.6
		c-0.4,0-0.8,0.4-0.7,1.1c0.1,0.8,0.3,2,0.3,2.7c0,10.9-9,19.5-21.2,20.1c-0.6,0.5-1.5,1.6-1.5,2.3c0,1.4,3.5,3.4,6.8,5.1
		c5.5,2.7,14.5,7,14.5,14.7c0,10.3-16.5,13.1-24.6,13.1C413,108.8,401.6,106.9,401.6,99.1z M416.8,91.1c-1.7,1.4-3.1,3.5-3.1,5.9
		c0,4.5,5.2,7,11.4,7c5.5,0,9.3-1.9,9.3-5c0-2.4-1.9-4.7-4.8-6.5c-3.7-2.3-6.5-3.7-7.6-3.7C421.1,88.9,418.5,89.7,416.8,91.1z
		 M428.2,50.6c-2.8,3.8-6,11.4-6,15.9c0,1.8,1,2.8,2.6,2.8c2.1,0,4.7-2.9,7-7.2c1.9-3.4,4.3-9.6,4.3-12.4c0-2-1.2-3.1-2.4-3.1
		C432.1,46.6,430.2,47.9,428.2,50.6z"/>
	<path class="st0" d="M477.5,25.8c1.2-3.5,1.2-4.6-0.6-5.5l-2.7-1.6c-0.3-0.8-0.3-1.7,0.5-2.3c3.1-1.3,12.9-3.1,17.8-3.3
		c0.7,0.1,0.9,0.4,1.1,1c-1.6,4.1-2.8,7.5-4.7,12.7L478.1,57h0.2c2.4-3.3,5.5-6.5,8.7-9c4.3-3.5,8.6-5.7,12.7-5.7
		c4.5,0,7.4,3.3,7.4,8.7c0,7.9-5.1,18.3-9.6,24.5c-3.3,4.5-8.9,8.5-14.8,8.5c-2.7,0-5.3-1.4-5.3-4s2.2-4.4,3.5-4.4
		c0.8,0,1.4,0.4,1.9,1.1c1.3,1.5,1.9,2,2.3,2c0.4,0,1-0.8,1.9-2.9c3.1-7.2,7.7-19.9,7.7-24.6c0-1.6-0.5-2.6-1.8-2.6
		c-2,0-6.2,3.4-11.3,10.1c-5.6,7.4-11.7,21.1-12.9,23.6c-0.7,1.4-2.7,1.8-4.9,1.8c-2.4,0-6.2-0.8-5.2-3.9L477.5,25.8z"/>
</g>
<g>
	<path class="st0" d="M69.5,198c0-9.7-0.2-10.7-4.2-11.3l-2.6-0.4c-0.9-0.5-1.1-3.4,0.4-3.5c7.3-0.5,14.4-0.9,24-0.9
		c9.3,0,15.4,1.1,19.7,3.6c4.1,2.5,6.6,6.6,6.6,12.2c0,8.1-6.8,11.3-9.8,12c-1,0.2-1.9,0.6-1.9,1.1c0,0.3,0.5,0.6,1.3,0.8
		c7.6,1.6,14.1,6.6,14.2,16c0.1,8.9-5.2,14.1-11.3,16.2c-6.1,2.1-13.3,2.4-19.2,2.4c-3.5,0-7.1-0.4-9.9-0.4c-4.7,0-9.4,0.1-14.9,0.3
		c-0.8-0.6-0.8-3.1,0-3.4l2.8-0.6c4.3-0.9,4.9-1.5,4.9-10.2V198z M82.8,207.3c0,2.5,0.1,2.7,5.1,2.7c8.3,0,11.4-5.3,11.4-11.1
		c0-8.4-5.2-12.5-11.9-12.5c-4.5,0-4.6,0.8-4.6,5V207.3z M82.8,229.6c0,7.5,1,12.2,8.5,12.2c7.1,0,10.9-5.5,10.9-13.3
		c0-8.4-4.8-14.3-14.1-14.3c-5.3,0-5.3,0.1-5.3,4V229.6z"/>
	<path class="st0" d="M149.1,224.1c-2.3,0-2.6,0.1-3.2,1.9l-3.8,11.2c-0.6,1.9-0.7,2.7-0.7,3.5c0,0.6,1.3,1.2,4,1.6l2.9,0.5
		c0.6,0.7,0.8,2.9-0.2,3.4c-3.4-0.2-6.8-0.2-10.9-0.3c-3.3,0-5.5,0.3-9.9,0.3c-1.1-0.6-1-2.6-0.3-3.4l2.6-0.3
		c2.3-0.3,4.2-1.1,5.9-4.8c1.6-3.9,3.5-8.5,6.1-15.4l8.8-23.5c2.2-6.1,3.9-9.4,3.6-12.2c4.6-1.1,8.2-5.8,8.4-5.8
		c1.3,0,1.8,0.5,2.2,1.9c0.8,2.8,1.9,6.4,4.3,13.2l13.1,37.8c2,5.8,2.9,8,6.5,8.6l3.7,0.6c0.6,0.5,0.8,2.8-0.1,3.4
		c-4.6-0.2-9.8-0.3-14.8-0.3c-4.8,0-8.6,0.1-13,0.3c-1.1-0.6-1.3-2.6-0.2-3.4l3.1-0.5c2.2-0.4,2.6-1.1,2.6-1.6c0-0.7-0.7-3-1.8-6.6
		l-2.6-8.3c-0.5-1.5-1.3-1.7-4.6-1.7H149.1z M160.1,219c2.2,0,2.7-0.3,1.9-2.8l-2.5-7.8c-1.3-4.1-3.1-9.3-4-11.4
		c-0.8,2.2-2.7,7.4-4.1,11.9l-2.4,7.2c-0.9,2.6-0.4,2.9,2,2.9H160.1z"/>
	<path class="st0" d="M223.9,207.9c0,3.2,0.6,3.6,1.7,3.6c2,0,6.1-3.8,7.7-5.6c5.1-5.7,10.7-11.7,13.8-16.2c0.9-1.3,1.3-2.1,1.3-2.5
		s-0.4-1.1-1.6-1.3l-3.4-0.6c-1.1-0.7-0.9-3,0.4-3.4c4.9,0.2,8.5,0.3,11.9,0.3c3.6,0,7.8-0.1,11.7-0.3c1.2,0.4,1.3,2.6,0.5,3.4
		c-3.4,0.4-6.3,0.9-8.3,1.7c-3.9,1.5-8,5.2-14.3,12.3l-4.4,5c-1,1.1-1.3,1.8-1.3,2.2c0,0.5,0.6,1.6,3.5,6
		c4.8,7.2,10.5,16.5,17.1,25.2c2.6,3.5,4.4,4.1,7.1,4.5l3.1,0.5c0.6,0.9,0.6,2.9-0.3,3.4c-4.8-0.2-9.4-0.3-13.9-0.3
		c-4.9,0-9.7,0.1-15.1,0.3c-1.3-0.4-1.3-2.8-0.2-3.4l2.4-0.6c1.1-0.3,1.6-0.6,1.6-1c0-0.4-0.2-1.1-0.8-1.9l-5.6-8.6l-5.1-7.8
		c-3.5-5.3-5.1-7.6-7.2-7.6c-2.2,0-2.3,1.3-2.3,6.6V232c0,9,0.6,9.8,4.9,10.4l2.7,0.4c0.8,0.7,0.8,2.8,0,3.4
		c-5.1-0.2-9.9-0.3-14.6-0.3c-4.3,0-9.3,0.1-14.5,0.3c-0.8-0.6-0.8-2.8,0-3.4l2.7-0.4c4.3-0.6,4.9-1.4,4.9-10.4v-35.8
		c0-9-0.6-9.8-4.9-10.4l-2.7-0.4c-1.1-0.6-1.1-2.8,0-3.4c4.8,0.2,9.6,0.3,14.5,0.3c4.6,0,9.4-0.1,14.6-0.3c0.9,0.6,0.9,2.8,0,3.4
		l-2.7,0.4c-4.3,0.6-4.9,1.4-4.9,10.4V207.9z"/>
	<path class="st0" d="M302.4,207.3c0,2.7,0.1,2.9,2.7,2.9h6.6c5,0,6.2-0.7,7.1-5.3l0.5-2.4c0.7-0.8,3.1-0.8,3.6,0.1
		c-0.2,3.1-0.3,6.6-0.3,10.2c0,3.7,0.1,7.1,0.3,10.2c-0.5,0.9-2.9,1-3.6,0.1l-0.5-2.4c-1-4.6-2.1-5.4-7.1-5.4h-6.6
		c-2.6,0-2.7,0.1-2.7,3v11.5c0,4.4,0.4,7.5,1.5,9.2c1.3,1.7,3.1,2.5,10.1,2.5c8.4,0,11.7-0.3,17-11.2c0.8-1.1,3.2-0.7,3.6,0.5
		c-0.4,5-2.7,12.8-4,15.4c-5.1-0.2-14.4-0.3-22.3-0.3h-12.5c-4.6,0-9.3,0.1-16.6,0.3c-0.8-0.6-0.8-2.9,0-3.4l4.5-0.7
		c4.3-0.7,4.9-1.3,4.9-10.1V196c0-8.8-0.6-9.3-4.9-10.2l-2.4-0.5c-0.9-0.6-0.8-2.8,0.2-3.4c4.5,0.2,9.3,0.3,13.9,0.3h20.4
		c6.2,0,11.7-0.1,12.9-0.3c0.1,1.5,0.8,8.5,1.3,14.9c-0.4,1.1-2.6,1.3-3.6,0.4c-1.1-3.4-2.4-6.3-3.7-7.6c-1.8-1.8-4.7-3-9.4-3h-7.7
		c-3.2,0-3.2,0.2-3.2,3.8V207.3z"/>
	<path class="st0" d="M355.4,197.9c0-9.6-0.2-10.7-4.2-11.3l-2.6-0.4c-1-0.5-1-2.9,0.2-3.4c7.2-0.5,14.7-0.9,23.9-0.9
		c8.2,0,15.2,1.3,18.9,3.5c5.6,3.3,8.5,8.1,8.5,14.3c0,8.6-5.8,12.2-10.2,14.5c-1,0.5-1,1.1-0.5,2.1c6.4,12.9,10.3,20.1,14.9,24.1
		c2.5,2,5,2.6,6.5,2.7c0.9,0.5,0.9,1.9,0.4,2.5c-1.5,0.7-4.6,0.9-7.6,0.9c-8.9,0-14.5-3.2-18.7-10.1c-3.1-5.1-5.3-9.8-7.5-14.9
		c-1.2-2.6-2.7-3.4-5.1-3.4c-3.4,0-3.6,0.2-3.6,2.1V232c0,8.9,0.6,9.5,4.9,10.3l2.6,0.5c0.7,0.5,0.7,2.8,0,3.4
		c-5.1-0.2-9.5-0.3-14.2-0.3c-4.8,0-9.1,0.1-14.1,0.3c-0.8-0.6-0.8-2.9,0-3.4l2.6-0.5c4.3-0.8,4.9-1.4,4.9-10.3V197.9z M368.6,210.1
		c0,3.4,0.3,3.7,6,3.7c3.5,0,5.5-0.9,7.3-2.7c1.6-1.6,3.5-4.7,3.5-10.4c0-8.7-5.1-14.3-12.6-14.3c-4,0-4.1,0.3-4.1,4.9V210.1z"/>
	<path class="st0" d="M439.8,247.4c-8.9,0-14.4-2.5-16.4-3.7c-1.8-2.1-3.1-9.1-3.1-15.6c0.7-1.3,2.9-1.3,3.7-0.3
		c1.9,6.3,8.4,15.1,16.6,15.1c7.1,0,10.4-4.9,10.4-9.7c0-7.8-7.3-12.4-13.1-15.3c-6.9-3.5-14.6-9.3-14.6-18.8
		c-0.1-10.9,8.4-18.4,22.4-18.4c3.2,0,7.1,0.4,11,1.5c1.3,0.4,2.1,0.6,3.3,0.8c0.8,2.1,1.7,7.3,1.7,13.8c-0.5,1.2-2.9,1.3-3.8,0.3
		c-1.6-4.9-5.8-11.9-12.7-11.9c-6.4,0-9.8,4.1-9.8,9c0,4.4,4,8.5,8.8,11l6.4,3.4c6,3.2,13.6,8.8,13.6,19.4
		C464,239.7,454.3,247.4,439.8,247.4z"/>
</g>
</svg>
