<?xml version="1.0" encoding="utf-8"?>
<!-- Generator: Adobe Illustrator 23.0.1, SVG Export Plug-In . SVG Version: 6.00 Build 0)  -->
<svg version="1.1" id="Layer_1" xmlns="http://www.w3.org/2000/svg" xmlns:xlink="http://www.w3.org/1999/xlink" x="0px" y="0px"
	 viewBox="0 0 500 130" style="enable-background:new 0 0 500 130;" xml:space="preserve">
<style type="text/css">
	.st0{fill:#E4508F;}
</style>
<g>
	<path class="st0" d="M39,58.3c0,0-3.7,6.6-15.1,7.2v-1c6.6-1.3,8-12-0.2-19.2l-11.2-8.5C2,29-0.5,18.4,5.7,9c0,0,3.7-6,14.5-6.6
		v0.9c-6.6,1.2-8,10.8,0.8,17.8L32.3,30C41.9,37.6,44.5,48.8,39,58.3z M20.9,64.6v0.9C7.9,65.2,2.8,61,2.8,61V44.3h0.7
		C4.6,49.9,10.4,63.4,20.9,64.6z M23.2,3.2V2.3c11.4,0.3,15.8,4,15.8,4v14.7h-0.7C36.9,15,33.7,4.2,23.2,3.2z"/>
	<path class="st0" d="M73.5,64.6v0.8c-15.2-0.8-25.1-14.2-25.1-31.1c0-16.8,9.9-31.1,25.1-31.9v0.8C66.3,4.1,66,11.9,66,34.4
		C66,56.9,66.3,63.9,73.5,64.6z M76.5,65.4v-0.8c7.2-0.8,7.5-7.7,7.5-30.3c0-22.5-0.3-30.3-7.5-31.1V2.4
		c15.3,0.9,25.2,15.1,25.2,31.9C101.7,51.3,91.8,64.6,76.5,65.4z"/>
	<path class="st0" d="M147.4,45.6c0,11.5-6.4,19.9-19.3,19.9c-9.9,0-19.6-6.3-19.6-20.6V11.6c0-5.3,0.3-7.7-2.9-7.7V3.1h20.9v0.8
		c-3.1,0-3,1.4-3,7.7v33.9c0,10.3,4.5,14.7,11.5,14.7c7.8,0,11.8-6.5,11.8-14.7H147.4z M137.9,3.9V3.1H157l0.1,0.8
		c-8.2,0-9.7,11.7-9.7,18.9h-0.7C146.7,15.6,144.8,3.9,137.9,3.9z"/>
	<path class="st0" d="M178.4,54.8c0,8.6,0.3,9.1,3.4,9.1v0.8h-21.8v-0.8c3.1,0,3.8-0.2,3.8-9.1V11.6c0-5.4-0.6-7.8-3.8-7.8V3.1h18.5
		V54.8z M214.6,63.9v0.8h-14.5c-5.2,0-6.8-3.9-8.5-20.2c-0.9-8.7-10.2-8.2-10.2-8.2v-0.8c8.8,0,9.7-0.3,9.7-15.7
		c0-16.2-1.8-15.9-9.7-15.9V3.1c14.2,0.1,26.9,2.4,26.9,16.7c0,13.1-10.1,15.8-17.1,15.8c8.4,0,12.6,2.2,16.2,17.9
		C208.9,60.3,212.7,63.8,214.6,63.9z"/>
	<path class="st0" d="M236,64.7h-18.4v-0.8c3.1,0,4.3-5.2,4.3-11.2V15.2c0-5.4-1.1-11.4-4.3-11.4V3.1H236V64.7z M250.3,4.4
		c3.7,1,7.2,2.4,10.2,4.7c6.1,4.5,10.4,12.3,10.4,25.1c0,12.8-4.3,20.4-10.4,24.8c-3.1,2.2-6.6,3.7-10.2,4.5
		c-3.7,0.9-7.5,1.1-11,1.1H239v-0.8h0.2c8.6,0,13.4-1.2,13.4-29.7c0-28-4.4-30.3-13.4-30.3H239V3.1h0.2
		C242.8,3.1,246.6,3.5,250.3,4.4z"/>
	<path class="st0" d="M302.7,64.6v0.8c-15.2-0.8-25.1-14.2-25.1-31.1c0-16.8,9.9-31.1,25.1-31.9v0.8c-7.2,0.9-7.5,8.7-7.5,31.1
		C295.1,56.9,295.4,63.9,302.7,64.6z M305.7,65.4v-0.8c7.2-0.8,7.5-7.7,7.5-30.3c0-22.5-0.3-30.3-7.5-31.1V2.4
		c15.3,0.9,25.2,15.1,25.2,31.9C330.9,51.3,320.9,64.6,305.7,65.4z"/>
	<path class="st0" d="M376.5,45.6c0,11.5-6.4,19.9-19.3,19.9c-9.9,0-19.6-6.3-19.6-20.6V11.6c0-5.3,0.3-7.7-2.9-7.7V3.1h20.9v0.8
		c-3.1,0-3,1.4-3,7.7v33.9c0,10.3,4.5,14.7,11.5,14.7c7.8,0,11.8-6.5,11.8-14.7H376.5z M367,3.9V3.1h19.1l0.1,0.8
		c-8.2,0-9.7,11.7-9.7,18.9h-0.7C375.8,15.6,373.9,3.9,367,3.9z"/>
	<path class="st0" d="M417,64.6v0.8c-15-0.8-26.5-13.6-26.5-31.5c0-18,11.5-30.6,26.4-31.5v0.8c-6.9,0.9-8.5,8.2-8.5,30.7
		S410,63.8,417,64.6z M419.9,3.2V2.3c9,0.2,12.8,1.5,17.1,4.9l-1.4,17.2H435C435,6,425.2,3.5,419.9,3.2z M441.9,41.7v0.8
		c-5,0-4.7,0.5-4.7,18c-3.4,2.9-10,4.7-17.2,5v-0.9c4.5-0.6,6.4-4,6.4-11.7c0-9.5-1.1-10.4-5.1-10.4v-0.8H441.9z"/>
	<path class="st0" d="M494.5,11.4v45c0,1.4-0.2,7.6,3.2,7.6v0.8h-18.8v-0.8c1.9,0,1.8-6.2,1.8-7.6V35.7H463v20.6
		c0,1.4-0.2,7.6,1.8,7.6v0.8h-18.9v-0.8c3.6,0,3.3-6.2,3.3-7.6v-45c0-0.9,0.2-7.5-3.3-7.5V3.1h18.9v0.7c-2.2,0-1.8,6.6-1.8,7.5v23.5
		h17.7V11.4c0-0.9,0.3-7.5-1.8-7.5V3.1h18.8v0.7C494.5,3.8,494.5,10.5,494.5,11.4z"/>
</g>
<g>
	<path class="st0" d="M179.7,126.9h-19.2v-0.8c3.1,0,4.2-5.2,4.2-11.2V77.4c0-5.4-1-11.4-4.2-11.4v-0.7h19.2V126.9z M182.6,126.9
		v-0.8c5.5-0.1,9.9-1.4,9.9-15.2c0-13.1-5.3-14.7-9.9-14.9v-0.8c3.6-0.3,7.4-2.4,7.4-15c0-10.8-4-13.5-7.4-14v-1
		c10.1,0,22.3,0.2,22.3,15.5c0,13-14.4,14.5-15.9,14.5c4.7,0,19.3,1,19.3,15.9C208.3,126.5,195.2,126.9,182.6,126.9z"/>
	<path class="st0" d="M268.7,126.2v0.7h-25.5v-0.7c5.8,0,1.5-10.2,1.5-10.2l-2.3-6H228c-1.5,4-0.1,16.3,8.6,16.3v0.7h-21v-0.7
		c2.2-0.2,6.3-1,12-17.1H242l-7.6-20.6l7.6-23.3h0.4c18.4,50.7,19.7,53.6,19.7,53.6C264.7,126,267.2,126,268.7,126.2z"/>
	<path class="st0" d="M297.9,65.3V66c-3.2,0-3.6-0.4-3.6,6v48.5c0,5.9,0.3,5.6,3.4,5.6v0.8H277v-0.8c3.1,0,3,0.3,3-5.6V72.1
		c0-5.4,0.1-6-3-6v-0.7H297.9z M325.5,119.7c0,0-2.2-3.4-19.2-30.8C318.1,73.6,327.6,66,332,66v-0.7h-24V66c4.6,0,6,11.9,0.7,18.7
		l-12.4,15.7c0,0,3.1,5.2,7.4,12.3c7.6,13.3,8.5,14.1,16.2,14.1h13v-0.8C331,126,329.3,125.8,325.5,119.7z"/>
	<path class="st0" d="M360.6,126.9h-18.4v-0.8c3.1,0,4.2-5.2,4.2-11.2V77.4c0-5.4-1-11.4-4.2-11.4v-0.7h18.4V126.9z M363.6,66.1
		v-0.8h20.2v17.9h-0.7C383.1,67.6,366.3,66.3,363.6,66.1z M363.6,96.2v-0.8h2.9c0.1,0,7.8,0.3,8.6-10.3h0.7v21.4h-0.7
		c-0.8-10.5-8.5-10.3-8.6-10.3H363.6z M384.7,126.9h-21.1v-0.8c2.8,0.1,20.5-0.4,20.5-16.4h0.7V126.9z"/>
	<path class="st0" d="M414.2,117c0,8.6,0.3,9.1,3.3,9.1v0.8h-21.8v-0.8c3.1,0,3.8-0.2,3.8-9.1V73.8c0-5.4-0.6-7.8-3.8-7.8v-0.7h18.4
		V117z M450.4,126.1v0.8h-14.5c-5.2,0-6.8-3.9-8.5-20.2c-0.9-8.7-10.1-8.2-10.1-8.2v-0.8c8.7,0,9.7-0.3,9.7-15.7
		c0-16.2-1.8-15.9-9.7-15.9v-0.8C431.4,65.4,444,67.7,444,82c0,13.1-10.1,15.8-17,15.8c8.4,0,12.6,2.2,16.2,17.9
		C444.6,122.5,448.5,126,450.4,126.1z"/>
	<path class="st0" d="M493.8,120.5c0,0-3.6,6.6-15.1,7.2v-1c6.6-1.3,8-12-0.2-19.2L467.3,99c-10.3-7.8-12.9-18.5-6.7-27.8
		c0,0,3.7-6,14.5-6.6v0.9c-6.6,1.2-8,10.8,0.8,17.8l11.2,8.9C496.7,99.8,499.2,111,493.8,120.5z M475.7,126.8v0.9
		c-13-0.3-18.1-4.5-18.1-4.5v-16.8h0.7C459.5,112.1,465.3,125.6,475.7,126.8z M478,65.4v-0.9c11.4,0.3,15.7,4,15.7,4v14.7h-0.7
		C491.7,77.2,488.5,66.4,478,65.4z"/>
</g>
</svg>
